<?xml version="1.0" standalone="no"?>
<!DOCTYPE svg PUBLIC "-//W3C//DTD SVG 20010904//EN"
 "http://www.w3.org/TR/2001/REC-SVG-20010904/DTD/svg10.dtd">
<svg version="1.0" xmlns="http://www.w3.org/2000/svg"
 width="90pt" height="30pt" viewBox="0 0 1000 700"
 preserveAspectRatio="xHighYHigh meet">

<g transform="translate(0.000000,704.000000) scale(0.100000,-0.100000)"
fill="#000000" stroke="none">
<path d="M435 7026 c-14 -10 -19 -25 -19 -55 2 -62 22 -78 112 -86 161 -15
346 -76 465 -155 184 -120 297 -309 341 -569 20 -120 21 -368 1 -516 -8 -60
-24 -179 -35 -263 -90 -689 -5 -1094 295 -1398 138 -140 279 -230 491 -314 90
-36 303 -93 426 -114 48 -8 97 -20 110 -27 l22 -12 -24 -9 c-14 -5 -82 -20
-151 -34 -210 -40 -447 -123 -604 -212 -304 -171 -488 -424 -564 -775 -54
-251 -49 -504 19 -972 27 -184 37 -461 21 -589 -44 -349 -210 -582 -496 -697
-102 -41 -211 -67 -307 -75 -99 -9 -123 -24 -123 -84 0 -76 19 -79 353 -60
611 36 980 165 1227 432 180 194 277 471 292 833 7 171 -9 319 -71 657 -62
339 -69 413 -63 596 6 188 28 284 94 419 126 259 374 405 792 467 55 8 99 20
109 29 8 9 17 39 20 69 7 84 -8 95 -144 108 -364 33 -652 211 -784 483 -58
121 -81 225 -87 403 -7 177 4 280 57 564 68 364 74 417 74 640 0 226 -15 324
-75 505 -91 271 -280 490 -537 619 -208 105 -531 172 -934 196 -233 13 -281
13 -303 -4z"/>
<path d="M346 5449 c-327 -48 -460 -453 -229 -700 131 -140 343 -170 510 -72
64 37 148 134 174 200 19 48 23 77 24 168 0 104 -2 114 -32 176 -81 165 -258
255 -447 228z"/>
<path d="M3978 2845 c-286 -47 -507 -245 -585 -525 -14 -51 -18 -101 -17 -235
0 -157 2 -176 27 -250 109 -326 397 -511 767 -492 188 9 335 72 461 197 69 68
149 174 149 198 0 5 -51 48 -113 94 l-112 85 -35 -60 c-152 -260 -526 -315
-725 -106 -238 250 -141 702 173 799 44 14 93 20 157 20 160 0 266 -48 356
-162 23 -29 46 -53 51 -53 11 0 237 157 238 165 1 14 -103 128 -156 172 -73
60 -198 122 -285 143 -98 22 -250 27 -351 10z"/>
<path d="M4970 2085 l0 -745 695 0 695 0 0 140 0 140 -105 0 -105 0 0 605 0
605 -145 0 -145 0 0 -600 0 -600 -300 0 -300 0 0 600 0 600 -145 0 -145 0 0
-745z"/>
<path d="M6510 2085 l0 -745 610 0 610 0 0 145 0 145 -465 0 -465 0 0 180 0
180 265 0 265 0 0 140 0 140 -265 0 -265 0 0 135 0 135 440 0 440 0 0 145 0
145 -585 0 -585 0 0 -745z"/>
<path d="M7892 2093 l3 -738 145 0 145 0 3 328 2 327 325 0 325 0 0 -330 0
-330 145 0 145 0 0 740 0 740 -145 0 -145 0 0 -265 0 -265 -325 0 -325 0 -2
263 -3 262 -148 3 -147 3 2 -738z"/>
<path d="M9926 2763 c-18 -37 -157 -327 -309 -643 -151 -316 -297 -621 -325
-677 l-49 -103 161 0 162 0 85 183 85 182 328 3 327 2 89 -185 89 -185 160 0
161 0 -18 37 c-9 21 -170 355 -357 743 l-341 705 -106 3 -107 3 -35 -68z m323
-765 c1 -5 -82 -8 -184 -8 -102 0 -185 3 -185 6 0 3 32 71 71 152 39 81 80
167 92 192 l21 45 92 -190 c51 -104 93 -193 93 -197z"/>
<path d="M4530 997 c0 -7 7 -23 16 -35 12 -17 25 -22 63 -22 50 0 81 20 81 53
0 23 -17 21 -30 -3 -8 -15 -21 -20 -51 -20 -32 0 -42 4 -46 20 -6 22 -33 28
-33 7z"/>
<path d="M8120 997 c0 -7 7 -23 16 -35 12 -17 25 -22 63 -22 50 0 81 20 81 53
0 23 -17 21 -30 -3 -8 -15 -21 -20 -51 -20 -32 0 -42 4 -46 20 -6 22 -33 28
-33 7z"/>
<path d="M6494 912 c-57 -27 -84 -74 -84 -148 0 -90 48 -146 135 -160 74 -11
184 56 154 92 -9 12 -19 7 -52 -22 -37 -34 -43 -36 -89 -32 -58 6 -93 35 -108
87 -22 80 34 161 111 161 42 0 95 -22 101 -42 5 -13 38 -4 38 11 0 6 -16 22
-35 37 -47 36 -115 42 -171 16z"/>
<path d="M7584 911 c-57 -26 -84 -73 -84 -147 0 -91 48 -146 136 -160 54 -8
122 22 155 67 19 27 24 47 24 95 0 51 -4 66 -29 98 -49 65 -124 82 -202 47z
m135 -36 c39 -20 65 -77 58 -129 -4 -30 -15 -50 -43 -75 -33 -30 -40 -33 -85
-29 -59 6 -95 35 -109 88 -29 109 79 197 179 145z"/>
<path d="M9050 924 c-43 -15 -90 -38 -90 -46 0 -17 29 -19 59 -4 63 33 171 12
171 -33 0 -30 -26 -43 -95 -49 -46 -3 -65 -9 -65 -18 0 -10 15 -14 50 -14 69
0 120 -22 120 -52 0 -13 -4 -28 -8 -34 -25 -38 -120 -45 -183 -14 -22 12 -44
18 -49 15 -51 -31 82 -83 177 -69 89 13 134 95 82 150 -20 21 -20 24 -5 39 18
19 21 57 5 87 -20 36 -113 60 -169 42z"/>
<path d="M3420 765 c0 -148 1 -155 20 -155 18 0 20 7 20 75 l0 75 90 0 90 0 0
-75 c0 -68 2 -75 20 -75 19 0 20 7 20 155 0 148 -1 155 -20 155 -18 0 -20 -7
-20 -60 l0 -60 -90 0 -90 0 0 60 c0 53 -2 60 -20 60 -19 0 -20 -7 -20 -155z"/>
<path d="M3992 770 c-40 -82 -72 -152 -72 -155 0 -3 8 -5 18 -5 11 0 26 16 40
45 l22 45 83 0 83 0 22 -45 c15 -31 28 -45 42 -45 11 0 20 2 20 5 0 3 -34 73
-75 155 -56 112 -80 150 -94 150 -13 0 -36 -37 -89 -150z m126 25 l32 -65 -66
0 c-49 0 -65 3 -61 13 36 86 51 117 56 117 4 0 21 -29 39 -65z"/>
<path d="M4480 765 c0 -119 3 -155 13 -155 7 0 55 52 107 115 51 63 97 115
102 115 4 0 8 -52 8 -115 0 -96 3 -115 15 -115 13 0 15 24 15 155 0 121 -3
155 -13 155 -7 0 -56 -53 -108 -117 l-94 -117 -3 117 c-2 109 -4 117 -22 117
-19 0 -20 -7 -20 -155z"/>
<path d="M5103 903 c-4 -10 -30 -72 -59 -138 -40 -95 -56 -121 -73 -123 -18
-3 -21 -10 -21 -53 0 -42 3 -49 20 -49 16 0 20 7 20 35 l0 35 145 0 145 0 0
-35 c0 -24 5 -35 15 -35 11 0 15 12 15 49 0 43 -3 50 -21 53 -17 2 -34 32 -83
141 -45 102 -65 137 -79 137 -10 0 -21 -8 -24 -17z m76 -151 c23 -51 41 -97
41 -102 0 -6 -39 -10 -90 -10 -52 0 -90 4 -90 10 0 23 84 210 91 203 4 -4 26
-50 48 -101z"/>
<path d="M5530 765 c0 -119 3 -155 13 -155 7 0 55 52 107 115 51 63 97 115
102 115 4 0 8 -52 8 -115 0 -96 3 -115 15 -115 13 0 15 24 15 155 0 121 -3
155 -13 155 -7 0 -56 -53 -108 -117 l-94 -117 -3 117 c-2 109 -4 117 -22 117
-19 0 -20 -7 -20 -155z"/>
<path d="M6960 764 l0 -156 126 4 c124 3 126 3 150 31 32 37 32 90 1 121 -20
20 -22 26 -10 42 20 27 16 62 -12 89 -23 24 -30 25 -140 25 l-115 0 0 -156z
m224 110 c9 -8 16 -23 16 -33 0 -33 -22 -41 -112 -41 l-88 0 0 45 0 45 84 0
c64 0 88 -4 100 -16z m27 -138 c16 -35 3 -75 -27 -86 -14 -6 -61 -10 -105 -10
l-79 0 0 60 0 60 100 0 c97 0 101 -1 111 -24z"/>
<path d="M8070 765 c0 -119 3 -155 13 -155 7 0 55 52 107 115 51 63 97 115
102 115 4 0 8 -52 8 -115 0 -96 3 -115 15 -115 13 0 15 24 15 155 0 121 -3
155 -13 155 -7 0 -56 -53 -108 -117 l-94 -117 -3 117 c-2 109 -4 117 -22 117
-19 0 -20 -7 -20 -155z"/>
<path d="M9500 764 l0 -156 126 4 c124 3 126 3 150 31 32 37 32 90 1 121 -20
20 -22 26 -10 42 20 27 16 62 -12 89 -23 24 -30 25 -140 25 l-115 0 0 -156z
m224 110 c9 -8 16 -23 16 -33 0 -33 -22 -41 -112 -41 l-88 0 0 45 0 45 84 0
c64 0 88 -4 100 -16z m27 -138 c16 -35 3 -75 -27 -86 -14 -6 -61 -10 -105 -10
l-79 0 0 60 0 60 100 0 c97 0 101 -1 111 -24z"/>
<path d="M10020 915 c0 -3 30 -50 66 -104 l65 -99 -30 -48 c-29 -47 -29 -49
-10 -52 11 -2 22 -2 23 0 14 19 186 299 186 303 0 3 -9 5 -19 5 -14 0 -35 -26
-72 -85 l-52 -86 -56 85 c-43 65 -61 86 -78 86 -13 0 -23 -2 -23 -5z"/>
<path d="M10550 765 c0 -148 1 -155 20 -155 18 0 20 7 20 58 0 53 2 59 34 85
19 15 37 27 40 27 2 0 32 -38 66 -85 41 -56 68 -85 81 -85 10 0 19 3 19 6 0 3
-29 46 -65 95 -36 48 -65 93 -65 98 0 5 26 32 58 60 51 46 54 51 32 51 -17 0
-53 -24 -110 -74 l-85 -74 -3 74 c-3 66 -5 74 -22 74 -19 0 -20 -8 -20 -155z"/>
</g>
</svg>
